<?xml version="1.0" standalone="no"?><!DOCTYPE svg PUBLIC "-//W3C//DTD SVG 1.1//EN" "http://www.w3.org/Graphics/SVG/1.1/DTD/svg11.dtd"><svg t="1669334469391" class="icon" viewBox="0 0 1024 1024" version="1.1" xmlns="http://www.w3.org/2000/svg" p-id="9129" xmlns:xlink="http://www.w3.org/1999/xlink" width="100" height="100"><path d="M203.89 655.38l18.4 18.4c41.34 41.34 64.11 96.3 64.11 154.77 0 97.7 79.48 177.18 177.18 177.18h203.75c97.7 0 177.18-79.48 177.18-177.18v-238.3c0-40.47-32.92-73.39-73.39-73.39-13.14 0-25.49 3.47-36.17 9.55-8.74-30.76-37.09-53.35-70.61-53.35-12.95 0-25.13 3.37-35.7 9.28-8.16-31.64-36.93-55.08-71.08-55.08-12.02 0-23.37 2.9-33.39 8.04V288.35c0-40.47-32.92-73.39-73.39-73.39s-73.39 32.92-73.39 73.39v332.96l-69.71-69.71c-13.86-13.86-32.29-21.5-51.89-21.5s-38.03 7.63-51.89 21.5c-28.62 28.61-28.62 75.17-0.01 103.78z m28.29-75.5c6.31-6.31 14.69-9.78 23.61-9.78s17.3 3.47 23.61 9.78l103.86 103.85a20.016 20.016 0 0 0 21.8 4.34 20.016 20.016 0 0 0 12.35-18.48V288.35c0-18.41 14.98-33.39 33.39-33.39s33.39 14.98 33.39 33.39v212.3c0 1.3 0.13 2.56 0.37 3.79v121.43c0 11.05 8.95 20 20 20s20-8.95 20-20V495.71c2.4-16.07 16.29-28.44 33.02-28.44 18.41 0 33.39 14.98 33.39 33.39v174.32c0 11.05 8.95 20 20 20s20-8.95 20-20V546.45c0-18.41 14.98-33.39 33.39-33.39s33.39 14.98 33.39 33.39v1.15c-0.18 1.08-0.3 2.18-0.3 3.3v149.93c0 11.05 8.95 20 20 20s20-8.95 20-20V593.56c0.18-1.08 0.3-2.18 0.3-3.3 0-18.41 14.98-33.39 33.39-33.39s33.39 14.98 33.39 33.39v238.3c0 75.64-61.54 137.18-137.18 137.18H463.58c-75.64 0-137.18-61.54-137.18-137.18 0-34.17-6.63-67.5-19.71-99.07-13.08-31.57-31.96-59.82-56.12-83.98l-18.4-18.4c-13.01-13.03-13.01-34.21 0.01-47.23z" p-id="9130"></path><path d="M659.21 381.43c10.13 4.41 21.91-0.22 26.32-10.35 13.96-32.05 21.04-66.15 21.04-101.38 0-67.85-26.42-131.63-74.4-179.6-47.97-47.97-111.76-74.4-179.6-74.4s-131.62 26.43-179.6 74.4c-47.97 47.97-74.39 111.76-74.39 179.6 0 37.85 8.13 74.27 24.16 108.26 3.41 7.23 10.6 11.47 18.1 11.47 2.86 0 5.76-0.62 8.52-1.92 9.99-4.71 14.27-16.63 9.55-26.62-13.5-28.61-20.34-59.29-20.34-91.19 0-118 96-214 214-214s214 96 214 214c0 29.69-5.96 58.42-17.71 85.4-4.41 10.13 0.22 21.92 10.35 26.33z" p-id="9131"></path></svg>