<?xml version="1.0" standalone="no"?><!DOCTYPE svg PUBLIC "-//W3C//DTD SVG 1.1//EN" "http://www.w3.org/Graphics/SVG/1.1/DTD/svg11.dtd"><svg t="1683515960382" class="icon" viewBox="0 0 1024 1024" version="1.1" xmlns="http://www.w3.org/2000/svg" p-id="45125" xmlns:xlink="http://www.w3.org/1999/xlink" width="128" height="128"><path d="M535.360301 0h69.599247v103.796802c112.34619-14.570085 229.870179-13.486359 337.761054 25.527751 40.699906 14.208843 84.289746 46.600188 80.918156 96.331138q0.722484 274.543744 0 549.207903c4.094073 50.212606-41.301976 82.363123-82.363123 96.331138-108.372531 36.124177-224.331138 41.061148-336.316087 24.805268V1023.518344h-72.248353C355.221072 990.886171 177.490122 960.662277 0 928.752587V95.488241C178.453434 63.578551 357.027281 32.511759 535.360301 0z" fill="#2c2c2c" p-id="45126" data-spm-anchor-id="a313x.7781069.0.i25" class=""></path><path d="M604.959548 140.041392c103.917215-14.690499 212.169332-14.208843 313.0762 17.339605 27.815616 10.596425 65.143932 23.360301 71.405456 57.317027-4.696143 27.695202-32.993415 40.21825-55.26999 50.212606-105.60301 36.124177-219.755409 39.857008-329.211666 22.99906z" fill="#FFFFFF" p-id="45127"></path><path d="M842.89746 325.117592c51.175917-7.826905 104.639699-19.145814 146.062088-53.10254-2.528692 51.175917 3.973659 102.953904-3.492003 153.648165-20.831609 25.407338-53.945437 34.438382-84.289746 43.108185a814.238946 814.238946 0 0 1-297.181562 11.078081v-154.129822A917.79492 917.79492 0 0 0 842.89746 325.117592zM237.57667 313.076199l81.279398-6.14111c39.014111 133.418627 75.981185 267.439323 114.634054 400.978363-26.852305-1.806209-53.70461-3.853246-80.4365-6.381937q-10.716839-44.553151-22.276576-89.106303c-36.124177 0-71.52587-1.324553-107.047977-3.130762q-10.355597 42.265287-20.952023 84.289746l-68.274694-5.057385C168.579492 563.296331 203.740357 438.427093 237.57667 313.076199z" fill="#FFFFFF" p-id="45128" data-spm-anchor-id="a313x.7781069.0.i26" class=""></path><path d="M238.058325 544.993415c12.041392-55.751646 29.260583-110.178739 37.087489-166.652869 10.476011 56.353716 26.611477 111.382879 39.857008 167.134525z" fill="#2c2c2c" p-id="45129" data-spm-anchor-id="a313x.7781069.0.i27" class="selected"></path><path d="M843.981185 515.732832c51.055503-7.826905 104.158043-19.145814 145.339605-52.982126-2.287865 51.055503 3.612418 102.592662-3.251176 153.286923C965.719661 641.565381 932.605833 650.235183 903.104421 659.266228a816.165569 816.165569 0 0 1-298.024459 12.041392V516.334901a907.680151 907.680151 0 0 0 238.901223-0.602069zM843.49953 706.227658c51.175917-7.706491 104.398871-19.0254 145.82126-52.982126-2.408278 51.055503 3.853246 102.83349-3.492004 153.527751-32.993415 36.124177-85.253057 43.469426-130.408278 52.861712a834.829727 834.829727 0 0 1-250.942615 0.963312c0.842897-51.296331 0-102.472248 0-153.76858a904.067733 904.067733 0 0 0 239.021637-0.602069z" fill="#FFFFFF" p-id="45130"></path></svg>