<?xml version="1.0" standalone="no"?><!DOCTYPE svg PUBLIC "-//W3C//DTD SVG 1.1//EN" "http://www.w3.org/Graphics/SVG/1.1/DTD/svg11.dtd"><svg t="1683526731207" class="icon" viewBox="0 0 1024 1024" version="1.1" xmlns="http://www.w3.org/2000/svg" p-id="3754" xmlns:xlink="http://www.w3.org/1999/xlink" width="128" height="128"><path d="M640.128 64.426667H298.922667a42.666667 42.666667 0 0 0-42.666667 42.581333v181.290667l383.872 223.914666 191.914667 80.981334 191.914666-80.981334V288.298667l-383.829333-223.914667z" fill="#21A366" p-id="3755"></path><path d="M256.256 288.298667h383.872v223.914666H256.256z" fill="#107C41" p-id="3756"></path><path d="M981.333333 64.426667h-341.205333v223.872h383.829333V107.008a42.666667 42.666667 0 0 0-42.666666-42.624z" fill="#33C481" p-id="3757"></path><path d="M640.128 512.213333H256.256V917.333333a42.666667 42.666667 0 0 0 42.666667 42.666667H981.333333a42.666667 42.666667 0 0 0 42.624-42.666667v-181.248l-383.829333-223.914666z" fill="#185C37" p-id="3758"></path><path d="M640.128 512.213333h383.829333v223.914667h-383.829333z" fill="#107C41" p-id="3759"></path><path d="M533.504 224.341333H256.256v607.744h277.248a42.752 42.752 0 0 0 42.666667-42.666666V266.965333a42.752 42.752 0 0 0-42.666667-42.666666z" fill="#000000" opacity=".1" p-id="3760"></path><path d="M501.504 256.298667H256.256v607.786666h245.248a42.752 42.752 0 0 0 42.666667-42.666666V298.965333a42.752 42.752 0 0 0-42.666667-42.666666z" fill="#000000" opacity=".2" p-id="3761"></path><path d="M501.504 256.298667H256.256v543.786666h245.248a42.752 42.752 0 0 0 42.666667-42.666666V299.008a42.752 42.752 0 0 0-42.666667-42.666667z" fill="#000000" opacity=".2" p-id="3762"></path><path d="M469.546667 256.298667H256.256v543.786666h213.290667a42.752 42.752 0 0 0 42.624-42.666666V299.008a42.752 42.752 0 0 0-42.666667-42.666667z" fill="#000000" opacity=".2" p-id="3763"></path><path d="M43.008 256.298667h426.538667a42.666667 42.666667 0 0 1 42.624 42.666666v426.496a42.666667 42.666667 0 0 1-42.666667 42.666667H43.050667a42.666667 42.666667 0 0 1-42.666667-42.666667V298.965333a42.666667 42.666667 0 0 1 42.666667-42.666666z" fill="#107C41" p-id="3764"></path><path d="M113.365333 672.128l103.509334-160.384-94.805334-159.488H198.4l51.754667 101.973333c4.778667 9.642667 8.064 16.853333 9.813333 21.589334h0.682667c3.413333-7.68 6.997333-15.189333 10.709333-22.485334l55.338667-101.077333h69.973333l-97.194667 158.592 99.669334 161.28H324.608L264.789333 560.213333a93.482667 93.482667 0 0 1-7.125333-14.933333h-0.853333c-1.792 5.077333-4.096 9.898667-6.954667 14.506667l-61.482667 112.384H113.365333z" fill="#FFFFFF" p-id="3765"></path></svg>