<?xml version="1.0" standalone="no"?><!DOCTYPE svg PUBLIC "-//W3C//DTD SVG 1.1//EN" "http://www.w3.org/Graphics/SVG/1.1/DTD/svg11.dtd"><svg t="1683507977129" class="icon" viewBox="0 0 1024 1024" version="1.1" xmlns="http://www.w3.org/2000/svg" p-id="21799" xmlns:xlink="http://www.w3.org/1999/xlink" width="128" height="128"><path d="M536 672h-80v-40c0-66.8 25.4-106.8 100.6-158.6 68.6-47.2 107.4-77.2 107.4-145.4 0-47-25.8-82.6-78.6-108.4-11.4-5.6-37.4-12-72.8-11.6-41.8 0.6-74.6 11-100 32-52.6 43.2-52.6 77-52.6 88v40h-80v-40c0-54.8 27.4-105.2 81.6-149.8 39.4-32.4 89.8-49.4 149.8-50.2 42.6-0.6 82.4 6.6 109 19.6 30.6 15 56 33.4 75.4 55 31.8 35.2 48 77.4 48 125.4 0 113.6-75.4 165.6-142 211.4-63 43.4-66 61.6-66 92.6v40zM447 736h98c3.8 0 7 3.2 7 7v98c0 3.8-3.2 7-7 7h-98c-3.8 0-7-3.2-7-7v-98c0-3.8 3.2-7 7-7z" p-id="21800" fill="#1d244f"></path></svg>