<?xml version="1.0" standalone="no"?><!DOCTYPE svg PUBLIC "-//W3C//DTD SVG 1.1//EN" "http://www.w3.org/Graphics/SVG/1.1/DTD/svg11.dtd"><svg t="1683508587647" class="icon" viewBox="0 0 1024 1024" version="1.1" xmlns="http://www.w3.org/2000/svg" p-id="27422" xmlns:xlink="http://www.w3.org/1999/xlink" width="128" height="128"><path d="M512 0C230.008471 0 0 230.008471 0 512s230.008471 512 512 512 512-230.008471 512-512S793.991529 0 512 0z m-1.264941 815.013647a45.628235 45.628235 0 0 1-45.537883-45.537882c-0.030118-25.088 20.449882-45.537882 45.537883-45.537883s45.537882 20.449882 45.537882 45.537883-20.449882 45.537882-45.537882 45.537882z m170.556235-369.603765c-11.986824 21.534118-35.297882 47.826824-70.174118 78.637177-23.431529 20.871529-38.701176 36.111059-45.929411 45.929412-13.854118 19.124706-18.522353 40.026353-20.419765 63.09647-1.957647 23.853176-9.005176 49.362824-40.749176 44.634353-25.118118-3.704471-30.840471-24.877176-29.936942-45.929412 1.054118-22.799059 5.029647-42.827294 11.685647-60.114823 5.933176-15.36 15.269647-30.930824 28.340706-46.772706 9.517176-11.444706 26.834824-28.069647 51.651765-49.995294 24.937412-22.076235 41.020235-39.544471 48.519529-52.61553 7.499294-12.950588 11.173647-27.256471 11.173647-42.646588 0-27.949176-10.902588-52.495059-32.707764-73.758117-42.074353-40.749176-113.633882-43.369412-156.882824-3.011765-19.305412 18.010353-31.593412 45.658353-39.062588 82.462117-10.631529 52.254118-79.480471 34.514824-71.589647-8.161882 18.703059-100.743529 80.293647-167.725176 186.518588-168.207059 51.410824-0.240941 101.857882 21.263059 136.463059 52.886589 34.032941 31.081412 51.109647 68.698353 51.109647 112.971294 0 25.479529-5.993412 49.061647-18.010353 70.595764z" fill="#1d244f" p-id="27423" data-spm-anchor-id="a313x.7781069.0.i19" class="selected"></path></svg>