<?xml version="1.0" encoding="UTF-8"?>
<!DOCTYPE svg PUBLIC "-//W3C//DTD SVG 1.1//EN" "http://www.w3.org/Graphics/SVG/1.1/DTD/svg11.dtd">
<!-- Creator: CorelDRAW -->
<svg xmlns="http://www.w3.org/2000/svg" xml:space="preserve" width="43.3492mm" height="43.3492mm" style="shape-rendering:geometricPrecision; text-rendering:geometricPrecision; image-rendering:optimizeQuality; fill-rule:evenodd; clip-rule:evenodd"
viewBox="0 0 734.561 734.561"
 xmlns:xlink="http://www.w3.org/1999/xlink">
 <defs>
  <style type="text/css">
   <![CDATA[
    .fil0 {fill:none}
    .fil4 {fill:#9D4D36}
    .fil5 {fill:#35495E}
    .fil3 {fill:#63BB81}
    .fil2 {fill:#68BB81}
    .fil1 {fill:url(#id0)}
   ]]>
  </style>
  <linearGradient id="id0" gradientUnits="userSpaceOnUse" x1="-3.26534" y1="368.15" x2="733.129" y2="368.15">
   <stop offset="0" style="stop-color:#41B883"/>
   <stop offset="0.85098" style="stop-color:#21AA68"/>
   <stop offset="1" style="stop-color:#009B4C"/>
  </linearGradient>
 </defs>
 <g id="图层_x0020_1">
  <metadata id="CorelCorpID_0Corel-Layer"/>
  <rect class="fil0" x="-0.000831213" y="-0.000831213" width="734.562" height="734.562"/>
  <path class="fil1" d="M682.581 83.6228l-350.54 0c-40.1838,0 -64.2342,44.6743 -42.1071,78.2139l73.7574 111.923c19.692,29.8829 63.3666,30.3285 83.6669,0.86251l47.5279 -68.9788c2.62481,-3.78217 6.09349,-6.80011 10.0383,-8.88267 3.93976,-2.08426 8.39634,-3.21111 12.9783,-3.21111 22.4507,0 35.7628,25.0789 23.1929,43.6796l-92.7428 136.804 -9.55878 14.0781 -28.2205 41.6564c-21.6729,32.0061 -68.8178,32.0044 -90.4941,0l-218.288 -322.065c-5.1005,-7.53383 -11.8972,-13.5612 -19.7208,-17.6942 -7.7931,-4.13802 -16.5826,-6.38495 -25.6889,-6.38495 -8.20995,0 -15.8099,1.73349 -22.5744,4.78193 -8.56241,3.81606 -15.7777,9.77568 -21.1984,17.0282 -13.2122,17.5993 -15.8743,42.812 -1.63691,63.8105l312.602 461.24c10.0451,14.8152 26.0075,22.1931 41.9394,22.1067 2.27574,-0.0118616 4.54979,-0.177925 6.80858,-0.493105 13.4358,-1.82839 26.2329,-9.04365 34.7597,-21.6136l317.278 -468.103c5.9969,-8.84878 8.73186,-18.5143 8.76914,-27.9511l0 -0.343987c-0.0779479,-26.1685 -20.8917,-50.4628 -50.5475,-50.4628z"/>
  <path class="fil2" d="M645.6 83.6228l-313.559 0c-40.1838,0 -64.2342,44.6743 -42.1071,78.2139l73.7574 111.923c10.0993,15.3218 26.5158,22.9268 42.873,22.6693 15.4947,-0.193175 30.9165,-7.46944 40.7939,-21.8068l47.5279 -68.9788c2.62481,-3.78217 6.09349,-6.80011 10.0383,-8.88267 3.93976,-2.08426 8.39634,-3.21111 12.9783,-3.21111 22.4507,0 35.7628,25.0789 23.1929,43.6796l-92.7428 136.804 197.247 -290.41z"/>
  <path class="fil3" d="M372.322 652.097l-359.713 -546.664c-13.2122,17.5993 -15.8743,42.812 -1.63691,63.8122l312.602 461.238c10.0451,14.8152 26.0075,22.1931 41.9394,22.1067 2.27574,-0.0118616 4.54979,-0.177925 6.80858,-0.493105z"/>
  <path class="fil4" d="M281.512 134.216c0.00338904,9.30291 2.63159,18.8431 8.42176,27.6207l73.7574 111.923c9.95361,15.1066 26.038,22.6896 42.1308,22.6896 1.20141,0.00169452 2.40283,-0.0406685 3.60085,-0.127089l-0.00508356 -0.0101671c-0.950625,0.0643917 -1.90125,0.10506 -2.85357,0.116922 -0.269429,0.00338904 -0.537163,0.00508356 -0.808286,0.00508356 -16.0861,0 -32.1315,-7.605 -42.0648,-22.6744l-73.7574 -111.923c-5.79017,-8.77761 -8.41837,-18.3178 -8.42176,-27.6207z"/>
  <path class="fil3" d="M320.079 429.767l-218.288 -322.065c-5.09881,-7.53383 -11.8972,-13.5612 -19.7208,-17.6942 -7.7931,-4.13802 -16.5826,-6.38495 -25.6889,-6.38495 -8.20995,0 -15.8099,1.73349 -22.5744,4.78193l286.272 341.363z"/>
  <path class="fil5" d="M404.128 296.422c-43.1442,-61.0366 -41.2853,-148.492 14.7067,-212.799l-97.5535 -1.65555c-38.286,7.34066 -53.8806,44.7387 -33.2482,78.2394l65.849 106.928c12.4141,20.1546 36.5,30.1726 50.2459,29.2881z"/>
 </g>
</svg>
