<?xml version="1.0" standalone="no"?><!DOCTYPE svg PUBLIC "-//W3C//DTD SVG 1.1//EN" "http://www.w3.org/Graphics/SVG/1.1/DTD/svg11.dtd"><svg t="1683526785801" class="icon" viewBox="0 0 1024 1024" version="1.1" xmlns="http://www.w3.org/2000/svg" p-id="3920" xmlns:xlink="http://www.w3.org/1999/xlink" width="128" height="128"><path d="M575.786667 64c-247.04 0.682667-447.146667 200.789333-447.829334 447.786667l567.338667 119.552-119.509333-567.381334z" fill="#ED6C47" p-id="3921"></path><path d="M575.786667 64c247.04 0.682667 447.104 200.789333 447.829333 447.786667l-223.914667 152.192-223.914666-152.192V64z" fill="#FF8F6B" p-id="3922"></path><path d="M575.786667 959.573333c247.04-0.682667 447.104-200.746667 447.829333-447.786666H127.957333c0.725333 247.04 200.789333 447.104 447.829334 447.829333z" fill="#D35230" p-id="3923"></path><path d="M533.12 223.914667H233.685333a445.056 445.056 0 0 0 29.781334 607.744h269.653333a42.752 42.752 0 0 0 42.666667-42.666667V266.581333a42.752 42.752 0 0 0-42.666667-42.666666z" fill="#000000" opacity=".1" p-id="3924"></path><path d="M501.12 255.914667H209.194667a444.8 444.8 0 0 0 91.008 607.744h200.96a42.752 42.752 0 0 0 42.666666-42.666667V298.538667a42.752 42.752 0 0 0-42.709333-42.666667z" fill="#000000" opacity=".2" p-id="3925"></path><path d="M501.12 255.914667H209.194667a444.288 444.288 0 0 0 24.490666 543.744h267.477334a42.752 42.752 0 0 0 42.666666-42.624V298.538667a42.752 42.752 0 0 0-42.709333-42.666667z" fill="#000000" opacity=".2" p-id="3926"></path><path d="M469.12 255.914667H209.194667a444.288 444.288 0 0 0 24.490666 543.744h235.477334a42.752 42.752 0 0 0 42.666666-42.624V298.538667a42.752 42.752 0 0 0-42.666666-42.666667z" fill="#000000" opacity=".2" p-id="3927"></path><path d="M42.666667 255.914667h426.496a42.666667 42.666667 0 0 1 42.666666 42.624v426.496a42.666667 42.666667 0 0 1-42.666666 42.666666H42.666667a42.666667 42.666667 0 0 1-42.666667-42.666666V298.538667a42.666667 42.666667 0 0 1 42.666667-42.666667z" fill="#C43E1C" p-id="3928"></path><path d="M255.829333 351.872c31.488-2.133333 62.72 6.997333 88.106667 25.728 21.12 18.858667 32.384 46.336 30.592 74.581333 0.341333 18.090667-4.949333 35.84-15.146667 50.773334a101.205333 101.205333 0 0 1-43.008 37.973333c-20.181333 9.386667-42.325333 13.994667-64.597333 13.525333H190.72v117.290667H128V351.872h127.872z m-65.194666 149.76h53.973333c17.109333 1.28 34.133333-3.754667 47.744-14.165333a35.413333 35.413333 0 0 0 16.128-32.853334c0-35.370667-20.650667-53.034667-61.866667-53.034666H190.634667v100.096z" fill="#F9F7F7" p-id="3929"></path></svg>