<?xml version="1.0" encoding="utf-8"?>
<!-- Generator: Adobe Illustrator 16.0.0, SVG Export Plug-In . SVG Version: 6.00 Build 0)  -->
<!DOCTYPE svg PUBLIC "-//W3C//DTD SVG 1.1//EN" "http://www.w3.org/Graphics/SVG/1.1/DTD/svg11.dtd">
<svg version="1.1" id="图层_1" xmlns="http://www.w3.org/2000/svg" xmlns:xlink="http://www.w3.org/1999/xlink" x="0px" y="0px"
	 width="512px" height="512px" viewBox="0 0 512 512" enable-background="new 0 0 512 512" xml:space="preserve">
<path d="M457.143,0H54.857C24.572,0,0,24.571,0,54.857v402.286C0,487.429,24.572,512,54.857,512h402.286
	C487.429,512,512,487.429,512,457.143V54.857C512,24.571,487.429,0,457.143,0z M316.914,438.515
	c-9.601,1.714-13.143-4.229-13.143-9.143c0-6.173,0.229-37.715,0.229-63.2c0-17.829-5.943-29.143-12.914-35.086
	c42.284-4.687,86.856-10.515,86.856-83.543c0-20.8-7.429-31.201-19.543-44.571c1.943-4.915,8.458-25.143-1.943-51.429
	C340.572,146.628,304.228,172,304.228,172c-15.085-4.229-31.428-6.4-47.542-6.4s-32.457,2.171-47.542,6.4
	c0,0-36.343-25.372-52.229-20.457c-10.399,26.171-4,46.4-1.943,51.429c-12.114,13.371-17.828,23.771-17.828,44.571
	c0,72.686,42.628,78.856,84.914,83.543c-5.486,4.914-10.4,13.372-12.114,25.485c-10.857,4.914-38.629,13.372-55.201-15.887
	c-10.399-18.057-29.143-19.542-29.143-19.542c-18.513-0.229-1.256,11.658-1.256,11.658c12.342,5.714,21.029,27.657,21.029,27.657
	c11.085,33.941,64.114,22.513,64.114,22.513c0,15.887,0.229,41.714,0.229,46.401c0,4.914-3.429,10.856-13.143,9.143
	c-75.428-25.258-128.229-97.029-128.229-180.914c0-104.915,80.229-184.572,185.143-184.572s189.943,79.658,189.943,184.572
	C443.542,341.485,392.343,413.372,316.914,438.515z M204.801,368.685c-2.172,0.458-4.229-0.456-4.458-1.94
	c-0.229-1.715,1.256-3.202,3.428-3.658c2.172-0.229,4.229,0.686,4.458,2.171C208.572,366.744,207.086,368.229,204.801,368.685
	L204.801,368.685z M193.943,367.657c0,1.485-1.714,2.742-4,2.742c-2.514,0.229-4.229-1.027-4.229-2.742c0-1.485,1.714-2.743,4-2.743
	C191.885,364.685,193.943,365.943,193.943,367.657z M178.286,366.399c-0.458,1.487-2.743,2.172-4.687,1.487
	c-2.17-0.458-3.656-2.173-3.2-3.658c0.458-1.484,2.744-2.172,4.687-1.714C177.372,363.199,178.857,364.914,178.286,366.399
	L178.286,366.399z M164.229,360.229c-1.029,1.257-3.201,1.028-4.916-0.687c-1.714-1.485-2.17-3.655-1.028-4.685
	c1.028-1.257,3.2-1.029,4.914,0.685C164.685,357.029,165.257,359.315,164.229,360.229z M153.828,349.828
	c-1.028,0.687-2.971,0-4.229-1.715c-1.256-1.714-1.256-3.655,0-4.456c1.258-1.029,3.201-0.229,4.229,1.485
	C155.086,346.857,155.086,348.914,153.828,349.828z M146.4,338.744c-1.028,1.027-2.742,0.455-4-0.688
	c-1.256-1.485-1.485-3.199-0.457-4c1.028-1.027,2.742-0.456,4,0.688C147.2,336.229,147.429,337.943,146.4,338.744z M138.742,330.286
	c-0.457,1.029-1.942,1.256-3.2,0.458c-1.485-0.688-2.171-1.943-1.714-2.973c0.458-0.686,1.714-1.027,3.2-0.456
	C138.515,328.113,139.2,329.372,138.742,330.286z"/>
</svg>
